<svg width="24" height="25" viewBox="0 0 24 25" fill="none" xmlns="http://www.w3.org/2000/svg">
<path d="M20 12.4481C20 8.67688 20 6.79127 18.8284 5.61969C17.6569 4.44812 15.7712 4.44812 12 4.44812V4.44812C8.22876 4.44812 6.34315 4.44812 5.17157 5.61969C4 6.79127 4 8.67688 4 12.4481V18.4481C4 19.3909 4 19.8623 4.29289 20.1552C4.58579 20.4481 5.05719 20.4481 6 20.4481H12C15.7712 20.4481 17.6569 20.4481 18.8284 19.2765C20 18.105 20 16.2194 20 12.4481V12.4481Z" stroke="black" stroke-width="1.7"/>
<path d="M9 12.4481L15 12.4481" stroke="black" stroke-width="1.7" stroke-linecap="round" stroke-linejoin="round"/>
<path d="M12 9.44812L12 15.4481" stroke="black" stroke-width="1.7" stroke-linecap="round" stroke-linejoin="round"/>
</svg>
