<svg width="24" height="24" viewBox="0 0 24 24" fill="none" xmlns="http://www.w3.org/2000/svg">
<path d="M7 9C7 8.44772 7.44772 8 8 8C8.55228 8 9 8.44772 9 9C9 9.55228 8.55228 10 8 10C7.44772 10 7 9.55228 7 9Z" fill="#333333"/>
<path d="M7 13C7 12.4477 7.44772 12 8 12C8.55228 12 9 12.4477 9 13C9 13.5523 8.55228 14 8 14C7.44772 14 7 13.5523 7 13Z" fill="#333333"/>
<path d="M12 8C11.4477 8 11 8.44772 11 9C11 9.55228 11.4477 10 12 10C12.5523 10 13 9.55228 13 9C13 8.44772 12.5523 8 12 8Z" fill="#333333"/>
<path d="M15 9C15 8.44772 15.4477 8 16 8C16.5523 8 17 8.44772 17 9C17 9.55228 16.5523 10 16 10C15.4477 10 15 9.55228 15 9Z" fill="#333333"/>
<path fill-rule="evenodd" clip-rule="evenodd" d="M15 3C15 2.44772 15.4477 2 16 2C16.5523 2 17 2.44772 17 3V4H19C20.1046 4 21 4.89543 21 6V18C21 19.1046 20.1046 20 19 20H5C3.89543 20 3 19.1046 3 18V6C3 4.89543 3.89543 4 5 4H7V3C7 2.44772 7.44772 2 8 2C8.55229 2 9 2.44772 9 3V4H15V3ZM5 7C5 6.44771 5.44772 6 6 6H18C18.5523 6 19 6.44772 19 7V17C19 17.5523 18.5523 18 18 18H6C5.44772 18 5 17.5523 5 17V7Z" fill="#333333"/>
</svg>
