<svg width="12" height="13" viewBox="0 0 12 13" fill="#1a1a1a" xmlns="http://www.w3.org/2000/svg">
    <g clip-path="url(#clip0_111_30)">
        <path
            d="M0.335204 0.783325C-0.111735 1.23027 -0.111735 1.9549 0.335205 2.40184L4.38149 6.44813L0.335217 10.4944C-0.111722 10.9413 -0.111723 11.666 0.335217 12.1129C0.782156 12.5598 1.50679 12.5598 1.95373 12.1129L6 8.06664L10.0463 12.1129C10.4932 12.5598 11.2178 12.5598 11.6648 12.1129C12.1117 11.666 12.1117 10.9413 11.6648 10.4944L7.61851 6.44813L11.6648 2.40184C12.1117 1.9549 12.1117 1.23027 11.6648 0.783327C11.2179 0.336388 10.4932 0.336388 10.0463 0.783328L6 4.82961L1.95372 0.783325C1.50678 0.336385 0.782144 0.336385 0.335204 0.783325Z"
            fill="#1a1a1a" />
    </g>
    <defs>
        <clipPath id="clip0_111_30">
            <rect width="12" height="12" fill="white" transform="translate(0 0.44812)" />
        </clipPath>
    </defs>
</svg>