<svg width="20" height="21" viewBox="0 0 20 21" fill="none" xmlns="http://www.w3.org/2000/svg">
<path fill-rule="evenodd" clip-rule="evenodd" d="M14.5833 12.9481C14.2065 12.9481 13.6741 13.0002 13.1198 13.0761C12.8609 13.1116 12.6634 13.309 12.628 13.5679C12.5521 14.1222 12.5 14.6546 12.5 15.0314C12.5 15.4083 12.5521 15.9407 12.628 16.4949C12.6634 16.7539 12.8609 16.9513 13.1198 16.9868C13.6741 17.0627 14.2065 17.1148 14.5833 17.1148C14.9601 17.1148 15.4925 17.0627 16.0468 16.9868C16.3057 16.9513 16.5032 16.7539 16.5387 16.4949C16.6146 15.9407 16.6666 15.4083 16.6666 15.0314C16.6666 14.6546 16.6146 14.1222 16.5387 13.5679C16.5032 13.309 16.3057 13.1116 16.0468 13.0761C15.4925 13.0002 14.9601 12.9481 14.5833 12.9481ZM12.8937 11.4248C11.8938 11.5618 11.1137 12.3419 10.9767 13.3418C10.8982 13.9153 10.8333 14.5382 10.8333 15.0314C10.8333 15.5246 10.8982 16.1476 10.9767 16.7211C11.1137 17.721 11.8938 18.5011 12.8937 18.638C13.4672 18.7166 14.0901 18.7814 14.5833 18.7814C15.0765 18.7814 15.6994 18.7166 16.273 18.638C17.2729 18.5011 18.053 17.721 18.1899 16.7211C18.2684 16.1476 18.3333 15.5246 18.3333 15.0314C18.3333 14.5382 18.2684 13.9153 18.1899 13.3418C18.053 12.3419 17.2729 11.5618 16.273 11.4248C15.6994 11.3463 15.0765 11.2814 14.5833 11.2814C14.0901 11.2814 13.4672 11.3463 12.8937 11.4248Z" fill="#5F6165"/>
<path fill-rule="evenodd" clip-rule="evenodd" d="M5.41669 12.9481C5.03987 12.9481 4.50746 13.0002 3.9532 13.0761C3.69426 13.1116 3.49681 13.309 3.46135 13.5679C3.38544 14.1222 3.33335 14.6546 3.33335 15.0314C3.33335 15.4083 3.38544 15.9407 3.46135 16.4949C3.49681 16.7539 3.69426 16.9513 3.9532 16.9868C4.50746 17.0627 5.03987 17.1148 5.41669 17.1148C5.7935 17.1148 6.32592 17.0627 6.88018 16.9868C7.13912 16.9513 7.33656 16.7539 7.37202 16.4949C7.44793 15.9407 7.50002 15.4083 7.50002 15.0314C7.50002 14.6546 7.44793 14.1222 7.37202 13.5679C7.33656 13.309 7.13912 13.1116 6.88018 13.0761C6.32592 13.0002 5.7935 12.9481 5.41669 12.9481ZM3.72705 11.4248C2.72713 11.5618 1.94704 12.3419 1.8101 13.3418C1.73155 13.9153 1.66669 14.5382 1.66669 15.0314C1.66669 15.5246 1.73155 16.1476 1.8101 16.7211C1.94704 17.721 2.72713 18.5011 3.72705 18.638C4.30056 18.7166 4.92349 18.7814 5.41669 18.7814C5.90989 18.7814 6.53282 18.7166 7.10632 18.638C8.10624 18.5011 8.88633 17.721 9.02328 16.7211C9.10182 16.1476 9.16669 15.5246 9.16669 15.0314C9.16669 14.5382 9.10182 13.9153 9.02328 13.3418C8.88633 12.3419 8.10624 11.5618 7.10632 11.4248C6.53282 11.3463 5.90989 11.2814 5.41669 11.2814C4.92349 11.2814 4.30056 11.3463 3.72705 11.4248Z" fill="#5F6165"/>
<path fill-rule="evenodd" clip-rule="evenodd" d="M14.5833 3.78141C14.2065 3.78141 13.6741 3.8335 13.1198 3.90941C12.8609 3.94487 12.6634 4.14232 12.628 4.40126C12.5521 4.95552 12.5 5.48793 12.5 5.86475C12.5 6.24156 12.5521 6.77398 12.628 7.32824C12.6634 7.58718 12.8609 7.78462 13.1198 7.82008C13.6741 7.89599 14.2065 7.94808 14.5833 7.94808C14.9601 7.94808 15.4925 7.89599 16.0468 7.82008C16.3057 7.78462 16.5032 7.58718 16.5387 7.32824C16.6146 6.77398 16.6666 6.24156 16.6666 5.86475C16.6666 5.48793 16.6146 4.95552 16.5387 4.40126C16.5032 4.14232 16.3057 3.94487 16.0468 3.90941C15.4925 3.8335 14.9601 3.78141 14.5833 3.78141ZM12.8937 2.25816C11.8938 2.3951 11.1137 3.17519 10.9767 4.17511C10.8982 4.74862 10.8333 5.37155 10.8333 5.86475C10.8333 6.35795 10.8982 6.98088 10.9767 7.55438C11.1137 8.5543 11.8938 9.33439 12.8937 9.47134C13.4672 9.54988 14.0901 9.61475 14.5833 9.61475C15.0765 9.61475 15.6994 9.54988 16.273 9.47134C17.2729 9.33439 18.053 8.5543 18.1899 7.55438C18.2684 6.98088 18.3333 6.35795 18.3333 5.86475C18.3333 5.37155 18.2684 4.74862 18.1899 4.17511C18.053 3.17519 17.2729 2.3951 16.273 2.25816C15.6994 2.17961 15.0765 2.11475 14.5833 2.11475C14.0901 2.11475 13.4672 2.17961 12.8937 2.25816Z" fill="#5F6165"/>
<path fill-rule="evenodd" clip-rule="evenodd" d="M5.41669 3.78141C5.03987 3.78141 4.50746 3.8335 3.9532 3.90941C3.69426 3.94487 3.49681 4.14232 3.46135 4.40126C3.38544 4.95552 3.33335 5.48793 3.33335 5.86475C3.33335 6.24156 3.38544 6.77398 3.46135 7.32824C3.49681 7.58718 3.69426 7.78462 3.9532 7.82008C4.50746 7.89599 5.03987 7.94808 5.41669 7.94808C5.7935 7.94808 6.32592 7.89599 6.88018 7.82008C7.13912 7.78462 7.33656 7.58718 7.37202 7.32824C7.44793 6.77398 7.50002 6.24156 7.50002 5.86475C7.50002 5.48793 7.44793 4.95552 7.37202 4.40126C7.33656 4.14232 7.13912 3.94487 6.88018 3.90941C6.32592 3.8335 5.7935 3.78141 5.41669 3.78141ZM3.72705 2.25816C2.72713 2.3951 1.94704 3.17519 1.8101 4.17511C1.73155 4.74862 1.66669 5.37155 1.66669 5.86475C1.66669 6.35795 1.73155 6.98088 1.8101 7.55438C1.94704 8.5543 2.72713 9.33439 3.72705 9.47134C4.30056 9.54988 4.92349 9.61475 5.41669 9.61475C5.90989 9.61475 6.53282 9.54988 7.10632 9.47134C8.10624 9.33439 8.88633 8.5543 9.02328 7.55438C9.10182 6.98088 9.16669 6.35795 9.16669 5.86475C9.16669 5.37155 9.10182 4.74862 9.02328 4.17511C8.88633 3.17519 8.10624 2.3951 7.10632 2.25816C6.53282 2.17961 5.90989 2.11475 5.41669 2.11475C4.92349 2.11475 4.30056 2.17961 3.72705 2.25816Z" fill="#5F6165"/>
</svg>
