<svg width="14" height="14" viewBox="0 0 20 19" fill="#72767C" xmlns="http://www.w3.org/2000/svg">
    <path fill-rule="evenodd" clip-rule="evenodd"
        d="M5.06713 2.28357C5.06713 3.54475 4.04475 4.56713 2.78357 4.56713C1.52239 4.56713 0.5 3.54475 0.5 2.28357C0.5 1.02239 1.52239 0 2.78357 0C4.04475 0 5.06713 1.02239 5.06713 2.28357ZM7.2231 18.9667V6.29752H10.9991V8.03002H11.0524C11.5773 7.0354 12.8611 5.98442 14.7762 5.98442C18.7651 5.98442 19.4999 8.60718 19.4999 12.02V18.9678H15.5642V12.8059C15.5642 11.3374 15.5391 9.44734 13.5175 9.44734C11.4677 9.44734 11.1567 11.0483 11.1567 12.7015V18.9667H7.2231ZM4.75272 6.29752H0.812837V18.9667H4.75272V6.29752Z">
    </path>
</svg>