<svg width="20" height="20" viewBox="0 0 20 20" fill="none" xmlns="http://www.w3.org/2000/svg">
<path d="M19.7192 18.3125L16.0114 14.6325C17.4506 12.837 18.1476 10.5578 17.959 8.26385C17.7705 5.96985 16.7106 3.83533 14.9975 2.29919C13.2844 0.763054 11.0481 -0.0579415 8.74862 0.00501891C6.44911 0.0679793 4.26109 1.01011 2.63448 2.63769C1.00786 4.26527 0.066292 6.45459 0.00336896 8.75547C-0.059554 11.0564 0.760954 13.2939 2.29618 15.0081C3.83141 16.7222 5.96466 17.7827 8.25729 17.9714C10.5499 18.1601 12.8277 17.4626 14.6222 16.0225L18.3 19.7025C18.3929 19.7963 18.5035 19.8707 18.6253 19.9214C18.747 19.9722 18.8777 19.9983 19.0096 19.9983C19.1415 19.9983 19.2722 19.9722 19.3939 19.9214C19.5157 19.8707 19.6263 19.7963 19.7192 19.7025C19.8993 19.5161 20 19.2669 20 19.0075C20 18.7482 19.8993 18.499 19.7192 18.3125V18.3125ZM9.01554 16.0225C7.63189 16.0225 6.27932 15.612 5.12886 14.8428C3.9784 14.0737 3.08172 12.9804 2.55223 11.7013C2.02273 10.4223 1.88419 9.01478 2.15412 7.65692C2.42406 6.29905 3.09035 5.05177 4.06873 4.0728C5.04712 3.09383 6.29366 2.42715 7.65072 2.15705C9.00778 1.88695 10.4144 2.02558 11.6927 2.55539C12.9711 3.0852 14.0637 3.98241 14.8324 5.13356C15.6011 6.2847 16.0114 7.63808 16.0114 9.02255C16.0114 10.8791 15.2743 12.6595 13.9623 13.9723C12.6504 15.2851 10.871 16.0225 9.01554 16.0225V16.0225Z" fill="black"/>
</svg>
