<svg width="14" height="14" viewBox="0 0 20 24" fill="#72767C" xmlns="http://www.w3.org/2000/svg">
    <path
        d="M8.4771 9.63603C8.38244 9.8029 7.16602 11.9166 4.82783 15.977C4.57224 16.4035 4.26458 16.6167 3.90486 16.6167H0.511182C0.312389 16.6167 0.165661 16.5379 0.0709975 16.3803C-0.0236658 16.2227 -0.0236658 16.0558 0.0709975 15.8797L3.66347 9.64994C3.67294 9.64994 3.67294 9.6453 3.66347 9.63603L1.37735 5.75635C1.26376 5.5524 1.25902 5.3809 1.36315 5.24184C1.44835 5.10278 1.59981 5.03325 1.81754 5.03325H5.21122C5.58987 5.03325 5.90226 5.24184 6.14838 5.65901L8.4771 9.63603ZM19.9219 0.708585C20.026 0.856913 20.026 1.02842 19.9219 1.2231L12.4246 14.211V14.2249L17.1956 22.7769C17.2997 22.9623 17.3045 23.1338 17.2098 23.2914C17.1151 23.4305 16.9637 23.5 16.7554 23.5H13.3617C12.9641 23.5 12.6518 23.2914 12.4246 22.8742L7.61093 14.2249C7.78133 13.9283 10.2946 9.56187 15.1509 1.12576C15.3875 0.708585 15.6905 0.5 16.0596 0.5H19.4817C19.69 0.5 19.8367 0.569528 19.9219 0.708585Z">
    </path>
</svg>