<svg width="14" height="14" viewBox="0 0 22 16" fill="#72767C" xmlns="http://www.w3.org/2000/svg">
    <path
        d="M21.5375 2.675C21.2875 1.725 20.5375 0.975 19.5875 0.7125C17.875 0.25 11 0.25 11 0.25C11 0.25 4.125 0.25 2.4 0.7125C1.45 0.9625 0.7125 1.7125 0.45 2.675C5.96046e-08 4.4 0 8 0 8C0 8 -2.98023e-08 11.6 0.4625 13.325C0.7125 14.275 1.4625 15.025 2.4125 15.2875C4.125 15.75 11 15.75 11 15.75C11 15.75 17.875 15.75 19.6 15.2875C20.55 15.0375 21.2875 14.2875 21.55 13.325C22 11.6 22 8 22 8C22 8 22 4.4 21.5375 2.675ZM8.75 11.275V4.725L14.5 8L8.75 11.275Z">
    </path>
</svg>