<svg width="110" height="60" viewBox="0 0 110 60" fill="none" xmlns="http://www.w3.org/2000/svg">
<path d="M28.2954 34.6805L55.5909 18.8864V25.234L28.2954 41.0388V34.6805ZM28.2954 18.8971L1 34.6805V41.0388L28.2954 25.234V18.8971ZM55.6015 11L1 42.5883V48.9359L55.6015 17.3583V11ZM28.2954 11L1 26.7942V33.1524L28.2954 17.3476V11ZM55.6015 26.7835L28.2954 42.5776V48.9359L55.5909 33.131V26.7835H55.6015ZM65.1053 33.2272H66.46L67.9639 35.653L69.4679 33.2272H70.8225V38.955H69.5746V35.2148L67.9639 37.662H67.9319L66.3426 35.2362V38.955H65.1053V33.2272ZM72.1985 33.2272H76.5078V34.3493H73.4465V35.5141H76.1451V36.6361H73.4465V37.8436H76.5504V38.9657H72.1985V33.2272ZM77.2757 38.1215L78.0224 37.2345C78.5344 37.662 79.0784 37.9291 79.729 37.9291C80.241 37.9291 80.5503 37.7261 80.5503 37.3841V37.3628C80.5503 37.0422 80.3583 36.8819 79.3984 36.6361C78.2464 36.3369 77.4997 36.027 77.4997 34.8836V34.8622C77.4997 33.8256 78.3317 33.131 79.505 33.131C80.337 33.131 81.0517 33.3982 81.6277 33.8577L80.977 34.8088C80.4757 34.4561 79.9744 34.2424 79.4944 34.2424C79.0144 34.2424 78.7584 34.4668 78.7584 34.7447V34.766C78.7584 35.14 79.0037 35.2683 79.9957 35.5141C81.1583 35.8133 81.809 36.23 81.809 37.2345V37.2559C81.809 38.3886 80.945 39.0298 79.7077 39.0298C78.833 39.0405 77.9584 38.7306 77.2757 38.1215ZM82.4276 38.1215L83.1743 37.2345C83.6863 37.662 84.2303 37.9291 84.8809 37.9291C85.3929 37.9291 85.7022 37.7261 85.7022 37.3841V37.3628C85.7022 37.0422 85.5102 36.8819 84.5503 36.6361C83.3983 36.3369 82.6516 36.027 82.6516 34.8836V34.8622C82.6516 33.8256 83.4836 33.131 84.6569 33.131C85.4889 33.131 86.2036 33.3982 86.7795 33.8577L86.1289 34.8088C85.6276 34.4561 85.1263 34.2424 84.6463 34.2424C84.1663 34.2424 83.9103 34.4668 83.9103 34.7447V34.766C83.9103 35.14 84.1556 35.2683 85.1476 35.5141C86.3102 35.8133 86.9609 36.23 86.9609 37.2345V37.2559C86.9609 38.3886 86.0969 39.0298 84.8596 39.0298C83.9849 39.0405 83.1103 38.7306 82.4276 38.1215ZM88.0489 33.2272H92.3581V34.3493H89.2968V35.5141H91.9848V36.6361H89.2862V37.8436H92.3901V38.9657H88.0382V33.2272H88.0489ZM65.1053 43.1547H66.46L67.9639 45.5804L69.4679 43.1547H70.8225V48.8825H69.5746V45.1423L67.9639 47.5894H67.9319L66.3426 45.1637V48.8825H65.1053V43.1547ZM72.1025 46.4246V43.1547H73.3612V46.3926C73.3612 47.3223 73.8305 47.8031 74.5985 47.8031C75.3664 47.8031 75.8358 47.333 75.8358 46.4246V43.144H77.0944V46.3712C77.0944 48.1024 76.1238 48.9573 74.5878 48.9573C73.0412 48.9679 72.1025 48.1131 72.1025 46.4246ZM73.1052 41.6693H74.2998V42.7059H73.1052V41.6693ZM74.8865 41.6693H76.0811V42.7059H74.8865V41.6693ZM78.3744 43.1547H79.537L82.2143 46.6811V43.1547H83.4516V48.8825H82.385L79.6117 45.2385V48.8825H78.3744V43.1547ZM84.5716 46.0399V46.0186C84.5716 44.3943 85.7982 43.0585 87.5582 43.0585C88.6355 43.0585 89.2862 43.4218 89.8088 43.9454L89.0088 44.8751C88.5715 44.4691 88.1235 44.234 87.5475 44.234C86.5876 44.234 85.8942 45.0354 85.8942 46.0186V46.0399C85.8942 47.0231 86.5769 47.8352 87.5475 47.8352C88.1982 47.8352 88.6035 47.5681 89.0515 47.162L89.8515 47.9741C89.2648 48.6046 88.6142 49 87.5049 49C85.8196 48.9786 84.5716 47.6749 84.5716 46.0399ZM90.8541 43.1547H92.1128V45.4201H94.4381V43.1547H95.6967V48.8825H94.4381V46.5849H92.1128V48.8825H90.8541V43.1547ZM97.062 43.1547H101.371V44.2767H98.31V45.4415H101.009V46.5636H98.31V47.7604H101.414V48.8825H97.062V43.1547ZM102.534 43.1547H103.697L106.374 46.6811V43.1547H107.611V48.8825H106.544L103.771 45.2385V48.8825H102.534V43.1547Z" fill="white"/>
</svg>
